<?xml version="1.0" encoding="iso-8859-1"?>
<!-- Generator: Adobe Illustrator 19.0.0, SVG Export Plug-In . SVG Version: 6.00 Build 0)  -->
<svg version="1.1" id="Capa_1" xmlns="http://www.w3.org/2000/svg" xmlns:xlink="http://www.w3.org/1999/xlink" x="0px" y="0px"
	 viewBox="0 0 468.293 468.293" style="enable-background:new 0 0 468.293 468.293;" xml:space="preserve">
<path style="fill:#44C4A1;" d="M433.219,221.93c-4.483,9.769-12.311,15.39-12.311,15.39c-3.212,28.036-40.481,22.415-40.481,22.415
	H48.419c-32.117-35.195-7.828-56.941-5.487-58.881c0.134-0.134,0.201-0.201,0.201-0.201c0-10.505,5.687-19.403,11.709-25.759
	c6.624-7.026,13.583-11.107,13.583-11.107c-1.004-6.892-0.268-12.914,1.606-18.066c7.494-20.875,33.187-28.303,33.187-28.303
	c-0.401-2.944-0.401-5.754-0.067-8.431c2.677-19.805,24.824-33.187,45.499-41.618c0.134-0.067,0.201-0.067,0.267-0.067
	c18.936-7.628,36.533-10.973,36.533-10.973c43.224-25.358-5.286-38.005-5.286-38.005c37.604-51.587,98.425,22.148,98.425,22.148
	c42.823,0,48.978,32.92,49.514,36.6c0.067,0.201,0.067,0.335,0.067,0.335c51.655,1.004,54.799,53.729,54.799,53.729
	c33.723-3.145,37.938,45.298,37.938,45.298c0.535,0.535,1.003,1.07,1.405,1.539C439.174,196.169,438.104,211.425,433.219,221.93z"/>
<path style="fill:#DC8744;" d="M401.035,259.734l-57.877,194.174c-2.208,7.293-8.23,12.646-15.523,14.051
	c-1.204,0.201-2.409,0.334-3.68,0.334H131.253c-1.271,0-2.476-0.133-3.68-0.334c-7.293-1.405-13.315-6.758-15.523-14.051
	L54.173,259.734H401.035z"/>
<g>
	<path style="fill:#F6C358;" d="M342.89,259.734l-15.255,208.224c-1.204,0.201-2.409,0.334-3.68,0.334h-23.084l15.255-208.559
		H342.89z"/>
	<polygon style="fill:#F6C358;" points="280.664,259.734 270.493,468.293 243.729,468.293 253.9,259.734 	"/>
	<polygon style="fill:#F6C358;" points="211.479,468.293 184.715,468.293 174.544,259.734 201.309,259.734 	"/>
	<path style="fill:#F6C358;" d="M154.337,468.293h-23.084c-1.271,0-2.476-0.133-3.68-0.334l-15.255-208.224h26.764L154.337,468.293z
		"/>
</g>
<g>
	<path style="fill:#3EA69B;" d="M328.103,77.069c-14.453,4.483-41.083,4.55-89.66-13.114c0,0-44.228-8.498-89.526,3.346
		c18.936-7.628,36.533-10.973,36.533-10.973c43.224-25.358-5.286-38.005-5.286-38.005c37.604-51.587,98.425,22.148,98.425,22.148
		C321.412,40.469,327.568,73.389,328.103,77.069z"/>
	<path style="fill:#3EA69B;" d="M433.219,221.93c-64.903-32.853-177.446-86.515-229.636-91.199c0,0-81.497-5.286-133.552,14.988
		c7.494-20.875,33.187-28.303,33.187-28.303c-0.401-2.944-0.401-5.754-0.067-8.431c49.38-8.565,183.267-28.37,226.29,17.865
		c0,0,40.615,36.199,92.871,51.119C439.174,196.169,438.104,211.425,433.219,221.93z"/>
	<path style="fill:#3EA69B;" d="M305.621,259.734h-98.224c-2.074-1.472-4.148-3.078-6.089-4.75
		c-43.693-36.935-118.565-49.848-158.377-54.131c0.134-0.134,0.201-0.201,0.201-0.201c0-10.505,5.687-19.403,11.709-25.759
		C222.318,200.719,284.076,234.375,305.621,259.734z"/>
</g>
<g>
	<path style="fill:#3A556A;" d="M155.625,161.429c-1.183-0.94-1.381-2.661-0.44-3.845l11.602-14.599
		c0.941-1.184,2.662-1.38,3.845-0.44c1.183,0.94,1.381,2.661,0.44,3.845l-11.602,14.599
		C158.528,162.173,156.808,162.369,155.625,161.429z"/>
	<path style="fill:#3A556A;" d="M207.259,217.137c1.183-0.94,1.381-2.661,0.44-3.845l-11.602-14.599
		c-0.941-1.184-2.662-1.38-3.845-0.44s-1.381,2.661-0.44,3.845l11.602,14.599C204.355,217.881,206.076,218.077,207.259,217.137z"/>
	<path style="fill:#3A556A;" d="M233.112,169.088c1.183-0.94,1.381-2.661,0.44-3.845l-11.602-14.599
		c-0.941-1.184-2.662-1.38-3.845-0.44c-1.183,0.94-1.381,2.661-0.44,3.845l11.602,14.599
		C230.208,169.832,231.929,170.028,233.112,169.088z"/>
	<path style="fill:#3A556A;" d="M363.064,203.637c1.511-0.012,2.726-1.246,2.714-2.759l-0.153-18.648
		c-0.012-1.513-1.248-2.727-2.759-2.714c-1.511,0.012-2.726,1.246-2.714,2.759l0.153,18.648
		C360.317,202.435,361.552,203.649,363.064,203.637z"/>
	<path style="fill:#3A556A;" d="M344.145,121.328c1.183-0.94,1.381-2.661,0.44-3.845l-11.602-14.599
		c-0.941-1.184-2.662-1.38-3.845-0.44c-1.183,0.94-1.381,2.661-0.44,3.845l11.602,14.599
		C341.241,122.072,342.962,122.268,344.145,121.328z"/>
	<path style="fill:#3A556A;" d="M62.527,241.408c-1.183-0.94-1.381-2.661-0.44-3.845l11.602-14.599
		c0.941-1.184,2.662-1.38,3.845-0.44c1.183,0.94,1.381,2.661,0.44,3.845l-11.602,14.599
		C65.431,242.153,63.71,242.348,62.527,241.408z"/>
	<path style="fill:#3A556A;" d="M296.706,203.755c1.183-0.94,1.381-2.661,0.44-3.845l-11.602-14.599
		c-0.941-1.184-2.662-1.38-3.845-0.44c-1.183,0.94-1.381,2.661-0.44,3.845l11.602,14.599
		C293.802,204.499,295.522,204.695,296.706,203.755z"/>
	<path style="fill:#3A556A;" d="M192.251,89.029c-1.183-0.94-1.381-2.661-0.44-3.845l11.602-14.599
		c0.941-1.184,2.662-1.38,3.845-0.44c1.183,0.94,1.381,2.661,0.44,3.845l-11.602,14.599
		C195.155,89.774,193.435,89.97,192.251,89.029z"/>
	<path style="fill:#3A556A;" d="M275.918,81.729c1.183-0.94,1.381-2.661,0.44-3.845l-11.602-14.599
		c-0.941-1.184-2.662-1.38-3.845-0.44c-1.183,0.94-1.381,2.661-0.44,3.845l11.602,14.599
		C273.014,82.473,274.735,82.669,275.918,81.729z"/>
</g>
<g>
</g>
<g>
</g>
<g>
</g>
<g>
</g>
<g>
</g>
<g>
</g>
<g>
</g>
<g>
</g>
<g>
</g>
<g>
</g>
<g>
</g>
<g>
</g>
<g>
</g>
<g>
</g>
<g>
</g>
</svg>
